<?xml version="1.0" encoding="UTF-8" standalone="no"?>
<svg width="267px" height="267px" viewBox="0 0 267 267" version="1.1" xmlns="http://www.w3.org/2000/svg" xmlns:xlink="http://www.w3.org/1999/xlink" xmlns:sketch="http://www.bohemiancoding.com/sketch/ns">
    <!-- Generator: Sketch 3.4.1 (15681) - http://www.bohemiancoding.com/sketch -->
    <title>White</title>
    <desc>Created with Sketch.</desc>
    <defs>
        <path id="path-1" d="M0,0.105 L266.895,0.105 L266.895,267 L0,267"></path>
    </defs>
    <g id="Page-1" stroke="none" stroke-width="1" fill="none" fill-rule="evenodd" sketch:type="MSPage">
        <g id="White" sketch:type="MSArtboardGroup">
            <g id="Page-1" sketch:type="MSLayerGroup">
                <mask id="mask-2" sketch:name="Clip 2" fill="white">
                    <use xlink:href="#path-1"></use>
                </mask>
                <g id="Clip-2"></g>
                <path d="M252.1641,0.1054 L14.7301,0.1054 C6.5941,0.1054 0.0001,6.6994 0.0001,14.8354 L0.0001,252.2694 C0.0001,260.4044 6.5941,267.0004 14.7301,267.0004 L142.5571,267.0004 L142.5571,163.6444 L107.7751,163.6444 L107.7751,123.3644 L142.5571,123.3644 L142.5571,93.6594 C142.5571,59.1874 163.6111,40.4164 194.3631,40.4164 C209.0941,40.4164 221.7541,41.5124 225.4431,42.0024 L225.4431,78.0284 L204.1151,78.0384 C187.3911,78.0384 184.1521,85.9854 184.1521,97.6474 L184.1521,123.3644 L224.0391,123.3644 L218.8461,163.6444 L184.1521,163.6444 L184.1521,267.0004 L252.1641,267.0004 C260.2991,267.0004 266.8941,260.4044 266.8941,252.2694 L266.8941,14.8354 C266.8941,6.6994 260.2991,0.1054 252.1641,0.1054" id="Fill-1" fill="#FEFEFE" sketch:type="MSShapeGroup" mask="url(#mask-2)"></path>
            </g>
        </g>
    </g>
</svg>