<svg version="1.1" id="Calque_1" xmlns="http://www.w3.org/2000/svg" xmlns:xlink="http://www.w3.org/1999/xlink" x="0px" y="0px" width="40px" height="40px" viewBox="0 0 40 40" enable-background="new 0 0 40 40" xml:space="preserve">
<path fill="#FFFFFF" d="M35.386,16.921h-3.482c0.254,0.985,0.403,2.014,0.403,3.078c0,6.798-5.51,12.308-12.307,12.308
	S7.693,26.797,7.693,19.999c0-1.064,0.15-2.093,0.404-3.078H4.615v16.925c0,0.849,0.689,1.537,1.54,1.537h27.691
	c0.852,0,1.54-0.688,1.54-1.537V16.921z M35.386,6.153c0-0.85-0.688-1.539-1.54-1.539h-4.614c-0.85,0-1.538,0.689-1.538,1.539v4.616
	c0,0.849,0.688,1.538,1.538,1.538h4.614c0.852,0,1.54-0.689,1.54-1.538V6.153z M20,12.307c-4.249,0-7.692,3.443-7.692,7.692
	c0,4.248,3.444,7.693,7.692,7.693c4.249,0,7.693-3.445,7.693-7.693C27.693,15.75,24.249,12.307,20,12.307 M35.386,40H4.615
	C2.066,40,0,37.933,0,35.383V4.614C0,2.066,2.066,0,4.615,0h30.771C37.935,0,40,2.066,40,4.614v30.769
	C40,37.933,37.935,40,35.386,40"></path>
</svg>
