<?xml version="1.0" encoding="UTF-8" standalone="no"?>
<svg width="378px" height="355px" viewBox="0 0 378 355" version="1.1" xmlns="http://www.w3.org/2000/svg" xmlns:xlink="http://www.w3.org/1999/xlink" xmlns:sketch="http://www.bohemiancoding.com/sketch/ns">
    <!-- Generator: Sketch 3.4.2 (15857) - http://www.bohemiancoding.com/sketch -->
    <title>Fill 3</title>
    <desc>Created with Sketch.</desc>
    <defs></defs>
    <g id="Page-1" stroke="none" stroke-width="1" fill="none" fill-rule="evenodd" sketch:type="MSPage">
        <g id="snapchat-seeklogo.com" sketch:type="MSLayerGroup" transform="translate(-69.000000, -80.000000)" fill="#FFFFFF">
            <path d="M260.001,434.208 C258.932,434.208 257.914,434.168 257.138,434.132 C256.523,434.184 255.888,434.208 255.253,434.208 C232.816,434.208 217.813,423.6 204.575,414.236 C195.086,407.531 186.137,401.204 175.653,399.459 C170.503,398.606 165.382,398.173 160.433,398.173 C151.517,398.173 144.469,399.556 139.324,400.561 C136.158,401.179 133.428,401.71 131.317,401.71 C129.107,401.71 126.424,401.22 125.304,397.4 C124.418,394.386 123.78,391.467 123.168,388.653 C121.632,381.626 120.516,377.337 117.885,376.931 C89.745,372.59 73.118,366.192 69.806,358.447 C69.46,357.631 69.265,356.814 69.221,356.002 C69.092,353.695 70.722,351.669 73,351.291 C95.347,347.613 115.217,335.799 132.063,316.172 C145.112,300.978 151.52,286.46 152.209,284.856 C152.238,284.783 152.274,284.707 152.308,284.64 C155.555,278.051 156.201,272.358 154.234,267.724 C150.608,259.172 138.6,255.362 130.654,252.841 C128.679,252.216 126.81,251.624 125.32,251.033 C118.277,248.251 106.694,242.373 108.237,234.26 C109.361,228.344 117.186,224.225 123.51,224.225 C125.266,224.225 126.822,224.532 128.132,225.147 C135.278,228.496 141.708,230.192 147.235,230.192 C154.111,230.192 157.432,227.575 158.235,226.83 C158.037,223.162 157.795,219.284 157.561,215.616 C157.561,215.611 157.556,215.567 157.556,215.567 C155.942,189.892 153.929,157.94 162.102,139.617 C186.564,84.771 238.441,80.505 253.754,80.505 C254.162,80.505 260.427,80.443 260.427,80.443 C260.711,80.438 261.018,80.435 261.336,80.435 C276.688,80.435 328.674,84.704 353.152,139.584 C361.325,157.92 359.311,189.9 357.691,215.6 L357.615,216.831 C357.394,220.321 357.189,223.624 357.016,226.825 C357.772,227.521 360.811,229.921 366.993,230.165 C372.264,229.963 378.321,228.274 384.991,225.15 C387.054,224.183 389.336,223.981 390.885,223.981 C393.228,223.981 395.611,224.437 397.599,225.266 L397.706,225.307 C403.366,227.315 407.073,231.331 407.153,235.548 C407.225,239.48 404.303,245.357 389.931,251.033 C388.46,251.616 386.582,252.212 384.597,252.841 C376.645,255.365 364.646,259.172 361.02,267.719 C359.05,272.354 359.697,278.046 362.945,284.631 C362.981,284.704 363.013,284.775 363.046,284.853 C364.046,287.195 388.251,342.388 442.255,351.283 C444.531,351.661 446.164,353.69 446.034,355.994 C445.986,356.822 445.786,357.65 445.437,358.459 C442.147,366.161 425.522,372.549 397.372,376.897 C394.73,377.306 393.617,381.574 392.094,388.564 C391.464,391.451 390.823,394.281 389.947,397.256 C389.128,400.054 387.307,401.421 384.38,401.421 L383.938,401.421 C382.032,401.421 379.335,401.074 375.93,400.408 C369.98,399.25 363.307,398.173 354.82,398.173 C349.872,398.173 344.751,398.606 339.597,399.459 C329.125,401.204 320.176,407.523 310.705,414.217 C297.443,423.6 282.436,434.208 260.001,434.208" id="Fill-3" sketch:type="MSShapeGroup"></path>
        </g>
    </g>
</svg>