<?xml version="1.0" encoding="UTF-8" standalone="no"?>
<svg width="94px" height="41px" viewBox="0 0 94 41" version="1.1" xmlns="http://www.w3.org/2000/svg" xmlns:xlink="http://www.w3.org/1999/xlink" xmlns:sketch="http://www.bohemiancoding.com/sketch/ns">
    <!-- Generator: Sketch 3.4.2 (15857) - http://www.bohemiancoding.com/sketch -->
    <title>Artboard</title>
    <desc>Created with Sketch.</desc>
    <defs></defs>
    <g id="Page-1" stroke="none" stroke-width="1" fill="none" fill-rule="evenodd" sketch:type="MSPage">
        <g id="Artboard" sketch:type="MSArtboardGroup" fill="#FFFFFF">
            <g id="soundcloud-logo" sketch:type="MSLayerGroup">
                <path d="M1.56,24.649 C1.366,24.649 1.212,24.799 1.187,25.013 L0.507,30.177 L1.187,35.253 C1.212,35.468 1.366,35.616 1.56,35.616 C1.749,35.616 1.901,35.468 1.931,35.255 L1.931,35.255 L1.931,35.254 C1.931,35.254 1.931,35.254 1.931,35.255 L2.737,30.177 L1.931,25.012 C1.902,24.799 1.748,24.649 1.56,24.649 L1.56,24.649 Z M5.385,21.827 C5.353,21.605 5.194,21.452 4.998,21.452 C4.801,21.452 4.638,21.61 4.61,21.827 C4.61,21.829 3.696,30.178 3.696,30.178 L4.61,38.344 C4.636,38.563 4.799,38.721 4.998,38.721 C5.192,38.721 5.352,38.567 5.384,38.346 L6.424,30.178 L5.385,21.827 L5.385,21.827 Z M19.788,14.124 C19.413,14.124 19.103,14.431 19.086,14.821 L18.358,30.185 L19.086,40.114 C19.105,40.502 19.413,40.808 19.788,40.808 C20.161,40.808 20.471,40.5 20.492,40.112 L20.492,40.115 L21.315,30.185 L20.492,14.821 C20.471,14.431 20.161,14.124 19.788,14.124 L19.788,14.124 Z M12.334,19.464 C12.046,19.464 11.81,19.694 11.787,20.001 L10.968,30.182 L11.787,40.031 C11.81,40.336 12.046,40.565 12.334,40.565 C12.618,40.565 12.853,40.335 12.879,40.031 L13.811,30.182 L12.879,19.999 C12.853,19.694 12.618,19.464 12.334,19.464 L12.334,19.464 Z M27.364,40.807 C27.829,40.807 28.208,40.432 28.226,39.952 L28.94,30.189 L28.227,9.734 C28.209,9.254 27.831,8.879 27.365,8.879 C26.896,8.879 26.517,9.255 26.503,9.735 C26.503,9.736 25.869,30.188 25.869,30.188 L26.503,39.954 C26.518,40.432 26.896,40.807 27.364,40.807 L27.364,40.807 Z M42.875,40.853 C43.515,40.853 44.043,40.326 44.055,39.677 L44.055,39.685 L44.055,39.677 L44.553,30.196 L44.055,6.572 C44.044,5.925 43.515,5.397 42.875,5.397 C42.233,5.397 41.704,5.924 41.694,6.573 L41.25,30.187 C41.25,30.203 41.694,39.683 41.694,39.683 C41.704,40.326 42.234,40.853 42.875,40.853 L42.875,40.853 Z M35.06,40.816 C35.617,40.816 36.066,40.369 36.082,39.798 L36.082,39.806 L36.687,30.191 L36.081,9.588 C36.065,9.018 35.616,8.572 35.06,8.572 C34.499,8.572 34.05,9.018 34.037,9.588 L33.499,30.192 L34.038,39.803 C34.051,40.369 34.5,40.816 35.06,40.816 L35.06,40.816 Z M16.047,40.727 C16.378,40.727 16.646,40.461 16.671,40.113 L17.549,30.182 L16.671,20.734 C16.647,20.385 16.379,20.122 16.047,20.122 C15.711,20.122 15.442,20.387 15.422,20.738 L14.648,30.181 L15.422,40.111 C15.443,40.461 15.711,40.727 16.047,40.727 L16.047,40.727 Z M8.65,40.182 C8.892,40.182 9.089,39.992 9.116,39.727 L10.102,30.18 L9.117,20.271 C9.089,20.006 8.892,19.815 8.65,19.815 C8.405,19.815 8.21,20.007 8.184,20.271 C8.184,20.272 7.316,30.18 7.316,30.18 L8.184,39.725 C8.209,39.99 8.404,40.182 8.65,40.182 L8.65,40.182 Z M38.952,9.246 C38.348,9.246 37.862,9.727 37.85,10.343 L37.358,30.194 L37.85,39.746 C37.862,40.353 38.346,40.835 38.952,40.835 C39.556,40.835 40.038,40.356 40.053,39.739 L40.053,39.747 L40.605,30.195 L40.053,10.34 C40.038,9.727 39.557,9.246 38.952,9.246 L38.952,9.246 Z M23.562,40.827 C23.98,40.827 24.325,40.486 24.345,40.051 L25.113,30.188 L24.345,11.311 C24.323,10.875 23.98,10.535 23.562,10.535 C23.14,10.535 22.796,10.876 22.778,11.311 C22.778,11.312 22.098,30.188 22.098,30.188 L22.779,40.055 C22.797,40.486 23.141,40.827 23.562,40.827 L23.562,40.827 Z M32.139,39.897 L32.139,39.891 L32.799,30.192 L32.139,9.047 C32.123,8.522 31.709,8.11 31.198,8.11 C30.684,8.11 30.27,8.521 30.257,9.047 L29.671,30.19 L30.258,39.895 C30.272,40.416 30.686,40.827 31.198,40.827 C31.71,40.827 32.122,40.416 32.139,39.893 L32.139,39.897 L32.139,39.897 Z M77.633,18.891 C76.723,8.583 68.078,0.497 57.534,0.497 C54.954,0.497 52.439,1.005 50.219,1.864 C49.356,2.198 49.126,2.542 49.117,3.209 L49.117,39.51 C49.127,40.209 49.67,40.792 50.352,40.862 C50.381,40.865 81.851,40.881 82.055,40.881 C88.37,40.881 93.491,35.761 93.491,29.442 C93.492,23.125 88.373,18.003 82.057,18.003 C80.49,18.003 78.995,18.32 77.633,18.891 Z M46.779,3.177 C46.093,3.177 45.528,3.741 45.518,4.434 L45.002,30.199 L45.519,39.55 C45.528,40.233 46.092,40.796 46.779,40.796 C47.464,40.796 48.028,40.232 48.038,39.54 L48.038,39.551 L48.599,30.199 L48.038,4.432 C48.028,3.741 47.465,3.177 46.779,3.177 L46.779,3.177 Z" id="Shape" sketch:type="MSShapeGroup"></path>
            </g>
        </g>
    </g>
</svg>