<?xml version="1.0" encoding="UTF-8" standalone="no"?>
<svg width="436px" height="190px" viewBox="0 0 436 190" version="1.1" xmlns="http://www.w3.org/2000/svg" xmlns:xlink="http://www.w3.org/1999/xlink" xmlns:sketch="http://www.bohemiancoding.com/sketch/ns">
    <!-- Generator: Sketch 3.4.3 (16618) - http://www.bohemiancoding.com/sketch -->
    <title>soundcloud logo</title>
    <desc>Created with Sketch.</desc>
    <defs>
        <path id="path-1" d="M203.91,184.412 L203.911,184.404 L203.911,184.398 L203.91,184.412 Z"></path>
        <path id="path-3" d="M203.91,184.412 L203.911,184.404 L203.911,184.398 L203.91,184.412 Z"></path>
        <path id="path-4" d="M174.863,47.016 L172.56,139.966 L174.865,184.692 C174.918,187.54 177.184,189.79 180.019,189.79 L180.019,189.79 C182.846,189.79 185.109,187.54 185.171,184.659 L185.171,184.659 L185.171,184.696 L187.753,139.971 L185.171,47.006 C185.109,44.135 182.846,41.881 180.019,41.881 L180.019,41.881 C177.184,41.881 174.918,44.137 174.863,47.016"></path>
        <path id="path-6" d="M174.863,47.016 L172.56,139.966 L174.865,184.692 C174.918,187.54 177.184,189.79 180.019,189.79 L180.019,189.79 C182.846,189.79 185.109,187.54 185.171,184.659 L185.171,184.659 L185.171,184.696 L187.753,139.971 L185.171,47.006 C185.109,44.135 182.846,41.881 180.019,41.881 L180.019,41.881 C177.184,41.881 174.918,44.137 174.863,47.016"></path>
        <path id="path-7" d="M157.007,43.488 L154.482,139.961 L157.009,184.97 C157.068,187.613 159.169,189.708 161.792,189.708 L161.792,189.708 C164.403,189.708 166.502,187.613 166.573,184.947 L166.573,184.947 L166.573,184.98 L169.411,139.961 L166.573,43.483 C166.502,40.818 164.403,38.73 161.792,38.73 L161.792,38.73 C159.169,38.73 157.068,40.821 157.007,43.488"></path>
        <path id="path-9" d="M157.007,43.488 L154.482,139.961 L157.009,184.97 C157.068,187.613 159.169,189.708 161.792,189.708 L161.792,189.708 C164.403,189.708 166.502,187.613 166.573,184.947 L166.573,184.947 L166.573,184.98 L169.411,139.961 L166.573,43.483 C166.502,40.818 164.403,38.73 161.792,38.73 L161.792,38.73 C159.169,38.73 157.068,40.821 157.007,43.488"></path>
        <path id="path-10" d="M203.911,184.383 L203.911,184.398 L203.911,184.39 L203.912,184.38 C203.912,184.381 203.911,184.382 203.911,184.383"></path>
        <path id="path-12" d="M203.911,184.383 L203.911,184.398 L203.911,184.39 L203.912,184.38 C203.912,184.381 203.911,184.382 203.911,184.383"></path>
        <path id="path-13" d="M203.91,184.415 L203.911,184.404 L203.911,184.399 L203.91,184.415 Z"></path>
        <path id="path-15" d="M203.91,184.415 L203.911,184.404 L203.911,184.399 L203.91,184.415 Z"></path>
        <path id="path-16" d="M129.797,185.684 L129.799,185.657 L129.797,185.684 Z"></path>
        <path id="path-18" d="M129.797,185.684 L129.799,185.657 L129.797,185.684 Z"></path>
        <path id="path-19" d="M121.717,44.176 C121.717,44.178 118.754,139.947 118.754,139.947 L118.754,139.947 L121.719,185.675 C121.795,187.901 123.569,189.663 125.759,189.663 L125.759,189.663 C127.935,189.663 129.709,187.907 129.799,185.657 L129.799,185.657 L133.142,139.947 L129.799,44.174 C129.709,41.924 127.936,40.163 125.759,40.163 L125.759,40.163 C123.569,40.163 121.795,41.927 121.717,44.176"></path>
        <path id="path-21" d="M121.717,44.176 C121.717,44.178 118.754,139.947 118.754,139.947 L118.754,139.947 L121.719,185.675 C121.795,187.901 123.569,189.663 125.759,189.663 L125.759,189.663 C127.935,189.663 129.709,187.907 129.799,185.657 L129.799,185.657 L133.142,139.947 L129.799,44.174 C129.709,41.924 127.936,40.163 125.759,40.163 L125.759,40.163 C123.569,40.163 121.795,41.927 121.717,44.176"></path>
        <path id="path-22" d="M148.113,185.399 L148.115,185.376 L148.115,185.373 L148.115,185.373 L148.113,185.399 Z"></path>
        <path id="path-24" d="M148.113,185.399 L148.115,185.376 L148.115,185.373 L148.115,185.373 L148.113,185.399 Z"></path>
        <path id="path-25" d="M139.293,40.956 L136.549,139.952 L139.295,185.396 C139.363,187.828 141.301,189.753 143.705,189.753 L143.705,189.753 C146.101,189.753 148.035,187.829 148.115,185.376 L148.115,185.376 L151.207,139.956 L148.115,40.952 C148.037,38.492 146.102,36.567 143.705,36.567 L143.705,36.567 C141.301,36.567 139.363,38.495 139.293,40.956"></path>
        <path id="path-27" d="M139.293,40.956 L136.549,139.952 L139.295,185.396 C139.363,187.828 141.301,189.753 143.705,189.753 L143.705,189.753 C146.101,189.753 148.035,187.829 148.115,185.376 L148.115,185.376 L151.207,139.956 L148.115,40.952 C148.037,38.492 146.102,36.567 143.705,36.567 L143.705,36.567 C141.301,36.567 139.363,38.495 139.293,40.956"></path>
        <path id="path-28" d="M52.822,92.238 L48.982,139.906 L52.822,186.023 C52.93,187.449 54.03,188.528 55.379,188.528 L55.379,188.528 C56.711,188.528 57.809,187.449 57.929,186.023 L57.929,186.023 L62.293,139.906 L57.929,92.229 C57.809,90.804 56.711,89.727 55.379,89.727 L55.379,89.727 C54.03,89.727 52.93,90.807 52.822,92.238"></path>
        <path id="path-30" d="M52.822,92.238 L48.982,139.906 L52.822,186.023 C52.93,187.449 54.03,188.528 55.379,188.528 L55.379,188.528 C56.711,188.528 57.809,187.449 57.929,186.023 L57.929,186.023 L62.293,139.906 L57.929,92.229 C57.809,90.804 56.711,89.727 55.379,89.727 L55.379,89.727 C54.03,89.727 52.93,90.807 52.822,92.238"></path>
        <path id="path-31" d="M195.408,24.753 C193.904,25.737 192.89,27.435 192.859,29.364 L192.859,29.364 L192.839,30.408 L190.773,139.944 C190.773,140.01 192.859,184.408 192.859,184.408 L192.859,184.408 C192.86,184.471 192.868,184.534 192.872,184.596 L192.872,184.596 C192.935,185.837 193.406,186.98 194.158,187.882 L194.158,187.882 C195.176,189.101 196.699,189.882 198.384,189.882 L198.384,189.882 C199.883,189.882 201.252,189.265 202.252,188.268 L202.252,188.268 C203.251,187.273 203.883,185.899 203.911,184.383 L203.911,184.383 L204.142,179.988 L206.24,139.979 L203.912,29.361 C203.879,27.465 202.899,25.79 201.437,24.799 L201.437,24.799 C200.56,24.204 199.508,23.856 198.384,23.856 L198.384,23.856 C197.292,23.856 196.27,24.188 195.408,24.753"></path>
        <path id="path-33" d="M195.408,24.753 C193.904,25.737 192.89,27.435 192.859,29.364 L192.859,29.364 L192.839,30.408 L190.773,139.944 C190.773,140.01 192.859,184.408 192.859,184.408 L192.859,184.408 C192.86,184.471 192.868,184.534 192.872,184.596 L192.872,184.596 C192.935,185.837 193.406,186.98 194.158,187.882 L194.158,187.882 C195.176,189.101 196.699,189.882 198.384,189.882 L198.384,189.882 C199.883,189.882 201.252,189.265 202.252,188.268 L202.252,188.268 C203.251,187.273 203.883,185.899 203.911,184.383 L203.911,184.383 L204.142,179.988 L206.24,139.979 L203.912,29.361 C203.879,27.465 202.899,25.79 201.437,24.799 L201.437,24.799 C200.56,24.204 199.508,23.856 198.384,23.856 L198.384,23.856 C197.292,23.856 196.27,24.188 195.408,24.753"></path>
        <path id="path-34" d="M69.838,95.693 L66.213,139.91 L69.838,186.406 C69.935,188.044 71.193,189.287 72.761,189.287 L72.761,189.287 C74.316,189.287 75.572,188.045 75.687,186.404 L75.687,186.404 L79.794,139.91 L75.686,95.674 C75.574,94.044 74.317,92.805 72.761,92.805 L72.761,92.805 C71.193,92.805 69.935,94.046 69.838,95.693"></path>
        <path id="path-36" d="M69.838,95.693 L66.213,139.91 L69.838,186.406 C69.935,188.044 71.193,189.287 72.761,189.287 L72.761,189.287 C74.316,189.287 75.572,188.045 75.687,186.404 L75.687,186.404 L79.794,139.91 L75.686,95.674 C75.574,94.044 74.317,92.805 72.761,92.805 L72.761,92.805 C71.193,92.805 69.935,94.046 69.838,95.693"></path>
        <path id="path-37" d="M86.992,67.986 C86.992,67.988 83.588,139.928 83.588,139.928 L83.588,139.928 L86.992,186.42 C87.081,188.235 88.53,189.671 90.289,189.671 L90.289,189.671 C92.033,189.671 93.48,188.235 93.584,186.41 L93.584,186.41 L93.584,186.425 L97.436,139.928 L93.584,67.983 C93.48,66.155 92.033,64.724 90.289,64.724 L90.289,64.724 C88.53,64.724 87.081,66.157 86.992,67.986"></path>
        <path id="path-39" d="M86.992,67.986 C86.992,67.988 83.588,139.928 83.588,139.928 L83.588,139.928 L86.992,186.42 C87.081,188.235 88.53,189.671 90.289,189.671 L90.289,189.671 C92.033,189.671 93.48,188.235 93.584,186.41 L93.584,186.41 L93.584,186.425 L97.436,139.928 L93.584,67.983 C93.48,66.155 92.033,64.724 90.289,64.724 L90.289,64.724 C88.53,64.724 87.081,66.157 86.992,67.986"></path>
        <path id="path-40" d="M104.012,51.785 C104.012,51.79 100.83,140.18 100.83,140.18 L100.83,140.18 L104.016,186.383 C104.098,188.404 105.709,190 107.683,190 L107.683,190 C109.641,190 111.25,188.41 111.349,186.377 L111.349,186.377 L114.949,140.18 L111.35,51.785 C111.256,49.745 109.644,48.149 107.683,48.149 L107.683,48.149 C105.709,48.149 104.098,49.745 104.012,51.785"></path>
        <path id="path-42" d="M104.012,51.785 C104.012,51.79 100.83,140.18 100.83,140.18 L100.83,140.18 L104.016,186.383 C104.098,188.404 105.709,190 107.683,190 L107.683,190 C109.641,190 111.25,188.41 111.349,186.377 L111.349,186.377 L114.949,140.18 L111.35,51.785 C111.256,49.745 109.644,48.149 107.683,48.149 L107.683,48.149 C105.709,48.149 104.098,49.745 104.012,51.785"></path>
        <path id="path-43" d="M75.686,186.41 L75.687,186.404 L75.687,186.402 L75.687,186.402 L75.686,186.41 Z"></path>
        <path id="path-45" d="M75.686,186.41 L75.687,186.404 L75.687,186.402 L75.687,186.402 L75.686,186.41 Z"></path>
        <path id="path-46" d="M212.952,14.81 C211.643,15.89 210.796,17.522 210.771,19.346 L210.771,19.346 L210.759,19.953 L208.354,139.99 L209.58,162.178 L210.773,183.773 C210.814,186.969 213.459,189.608 216.673,189.608 L216.673,189.608 C219.876,189.608 222.52,186.969 222.565,183.727 L222.565,183.727 L222.565,183.777 L222.565,183.777 L225.191,139.99 L225.191,139.988 L222.565,19.337 C222.536,17.206 221.375,15.34 219.673,14.311 L219.673,14.311 C218.791,13.776 217.766,13.463 216.673,13.463 L216.673,13.463 C215.266,13.463 213.97,13.969 212.952,14.81"></path>
        <path id="path-48" d="M212.952,14.81 C211.643,15.89 210.796,17.522 210.771,19.346 L210.771,19.346 L210.759,19.953 L208.354,139.99 L209.58,162.178 L210.773,183.773 C210.814,186.969 213.459,189.608 216.673,189.608 L216.673,189.608 C219.876,189.608 222.52,186.969 222.565,183.727 L222.565,183.727 L222.565,183.777 L222.565,183.777 L225.191,139.99 L225.191,139.988 L222.565,19.337 C222.536,17.206 221.375,15.34 219.673,14.311 L219.673,14.311 C218.791,13.776 217.766,13.463 216.673,13.463 L216.673,13.463 C215.266,13.463 213.97,13.969 212.952,14.81"></path>
        <path id="path-49" d="M3.183,115.712 L0,139.893 L3.183,163.661 C3.304,164.662 4.021,165.363 4.929,165.363 L4.929,165.363 C5.812,165.363 6.528,164.668 6.672,163.67 L6.672,163.67 L10.443,139.893 L6.672,115.703 C6.529,114.706 5.812,114.008 4.929,114.008 L4.929,114.008 C4.021,114.008 3.304,114.711 3.183,115.712"></path>
        <path id="path-51" d="M3.183,115.712 L0,139.893 L3.183,163.661 C3.304,164.662 4.021,165.363 4.929,165.363 L4.929,165.363 C5.812,165.363 6.528,164.668 6.672,163.67 L6.672,163.67 L10.443,139.893 L6.672,115.703 C6.529,114.706 5.812,114.008 4.929,114.008 L4.929,114.008 C4.021,114.008 3.304,114.711 3.183,115.712"></path>
        <path id="path-52" d="M19.217,100.793 C19.217,100.796 14.936,139.893 14.936,139.893 L14.936,139.893 L19.217,178.13 C19.341,179.153 20.102,179.895 21.028,179.895 L21.028,179.895 C21.946,179.895 22.687,179.172 22.834,178.139 L22.834,178.139 L27.707,139.893 L22.836,100.791 C22.687,99.753 21.946,99.033 21.028,99.033 L21.028,99.033 C20.102,99.033 19.341,99.773 19.217,100.793"></path>
        <path id="path-54" d="M19.217,100.793 C19.217,100.796 14.936,139.893 14.936,139.893 L14.936,139.893 L19.217,178.13 C19.341,179.153 20.102,179.895 21.028,179.895 L21.028,179.895 C21.946,179.895 22.687,179.172 22.834,178.139 L22.834,178.139 L27.707,139.893 L22.836,100.791 C22.687,99.753 21.946,99.033 21.028,99.033 L21.028,99.033 C20.102,99.033 19.341,99.773 19.217,100.793"></path>
        <path id="path-55" d="M35.95,93.504 C35.95,93.507 31.887,139.896 31.887,139.896 L31.887,139.896 L35.95,184.596 C36.065,185.839 36.983,186.736 38.133,186.736 L38.133,186.736 C39.262,186.736 40.178,185.839 40.312,184.605 L40.312,184.605 L44.93,139.896 L40.315,93.502 C40.178,92.263 39.262,91.366 38.133,91.366 L38.133,91.366 C36.983,91.366 36.065,92.265 35.95,93.504"></path>
        <path id="path-57" d="M35.95,93.504 C35.95,93.507 31.887,139.896 31.887,139.896 L31.887,139.896 L35.95,184.596 C36.065,185.839 36.983,186.736 38.133,186.736 L38.133,186.736 C39.262,186.736 40.178,185.839 40.312,184.605 L40.312,184.605 L44.93,139.896 L40.315,93.502 C40.178,92.263 39.262,91.366 38.133,91.366 L38.133,91.366 C36.983,91.366 36.065,92.265 35.95,93.504"></path>
        <path id="path-58" d="M267.032,0.916 C254.95,0.916 243.175,3.291 232.772,7.315 L232.772,7.315 C228.73,8.882 227.657,10.487 227.618,13.613 L227.618,13.613 L227.618,183.585 C227.661,186.863 230.204,189.411 233.403,189.731 L233.403,189.731 C233.54,189.744 381.853,189.731 381.853,189.731 L381.853,189.731 C411.429,189.731 435.403,166.02 435.403,136.44 L435.403,136.44 C435.403,106.86 411.429,82.883 381.853,82.883 L381.853,82.883 C374.514,82.883 367.512,84.371 361.138,87.041 L361.138,87.041 C356.876,38.778 316.403,0.916 267.032,0.916 L267.032,0.916 Z"></path>
        <path id="path-60" d="M267.032,0.916 C254.95,0.916 243.175,3.291 232.772,7.315 L232.772,7.315 C228.73,8.882 227.657,10.487 227.618,13.613 L227.618,13.613 L227.618,183.585 C227.661,186.863 230.204,189.411 233.403,189.731 L233.403,189.731 C233.54,189.744 381.853,189.731 381.853,189.731 L381.853,189.731 C411.429,189.731 435.403,166.02 435.403,136.44 L435.403,136.44 C435.403,106.86 411.429,82.883 381.853,82.883 L381.853,82.883 C374.514,82.883 367.512,84.371 361.138,87.041 L361.138,87.041 C356.876,38.778 316.403,0.916 267.032,0.916 L267.032,0.916 Z"></path>
    </defs>
    <g id="Page-1" stroke="none" stroke-width="1" fill="none" fill-rule="evenodd" sketch:type="MSPage">
        <g id="soundcloud-logo" sketch:type="MSArtboardGroup">
            <mask id="mask-2" sketch:name="Clip 2" fill="white">
                <use xlink:href="#path-1"></use>
            </mask>
            <g id="Clip-2">
                <use fill="none" sketch:type="MSShapeGroup" xlink:href="#path-1"></use>
                <use fill="#FFFFFF" fill-rule="evenodd" xlink:href="#path-1"></use>
            </g>
            <g id="Fill-1">
                <use fill="none" sketch:type="MSShapeGroup" mask="url(#mask-2)" xlink:href="#path-3"></use>
                <use fill="#FFFFFF" fill-rule="evenodd" xlink:href="#path-3"></use>
            </g>
            <mask id="mask-5" sketch:name="Clip 5" fill="white">
                <use xlink:href="#path-4"></use>
            </mask>
            <g id="Clip-5">
                <use fill="none" sketch:type="MSShapeGroup" xlink:href="#path-4"></use>
                <use fill="#FFFFFF" fill-rule="evenodd" xlink:href="#path-4"></use>
            </g>
            <g id="Fill-4">
                <use fill="none" sketch:type="MSShapeGroup" mask="url(#mask-5)" xlink:href="#path-6"></use>
                <use fill="#FFFFFF" fill-rule="evenodd" xlink:href="#path-6"></use>
            </g>
            <mask id="mask-8" sketch:name="Clip 8" fill="white">
                <use xlink:href="#path-7"></use>
            </mask>
            <g id="Clip-8">
                <use fill="none" sketch:type="MSShapeGroup" xlink:href="#path-7"></use>
                <use fill="#FFFFFF" fill-rule="evenodd" xlink:href="#path-7"></use>
            </g>
            <g id="Fill-7">
                <use fill="none" sketch:type="MSShapeGroup" mask="url(#mask-8)" xlink:href="#path-9"></use>
                <use fill="#FFFFFF" fill-rule="evenodd" xlink:href="#path-9"></use>
            </g>
            <mask id="mask-11" sketch:name="Clip 11" fill="white">
                <use xlink:href="#path-10"></use>
            </mask>
            <g id="Clip-11">
                <use fill="none" sketch:type="MSShapeGroup" xlink:href="#path-10"></use>
                <use fill="#FFFFFF" fill-rule="evenodd" xlink:href="#path-10"></use>
            </g>
            <g id="Fill-10">
                <use fill="none" sketch:type="MSShapeGroup" mask="url(#mask-11)" xlink:href="#path-12"></use>
                <use fill="#FFFFFF" fill-rule="evenodd" xlink:href="#path-12"></use>
            </g>
            <mask id="mask-14" sketch:name="Clip 14" fill="white">
                <use xlink:href="#path-13"></use>
            </mask>
            <g id="Clip-14">
                <use fill="none" sketch:type="MSShapeGroup" xlink:href="#path-13"></use>
                <use fill="#FFFFFF" fill-rule="evenodd" xlink:href="#path-13"></use>
            </g>
            <g id="Fill-13">
                <use fill="none" sketch:type="MSShapeGroup" mask="url(#mask-14)" xlink:href="#path-15"></use>
                <use fill="#FFFFFF" fill-rule="evenodd" xlink:href="#path-15"></use>
            </g>
            <mask id="mask-17" sketch:name="Clip 17" fill="white">
                <use xlink:href="#path-16"></use>
            </mask>
            <g id="Clip-17">
                <use fill="none" sketch:type="MSShapeGroup" xlink:href="#path-16"></use>
                <use fill="#FFFFFF" fill-rule="evenodd" xlink:href="#path-16"></use>
            </g>
            <g id="Fill-16">
                <use fill="none" sketch:type="MSShapeGroup" mask="url(#mask-17)" xlink:href="#path-18"></use>
                <use fill="#FFFFFF" fill-rule="evenodd" xlink:href="#path-18"></use>
            </g>
            <mask id="mask-20" sketch:name="Clip 20" fill="white">
                <use xlink:href="#path-19"></use>
            </mask>
            <g id="Clip-20">
                <use fill="none" sketch:type="MSShapeGroup" xlink:href="#path-19"></use>
                <use fill="#FFFFFF" fill-rule="evenodd" xlink:href="#path-19"></use>
            </g>
            <g id="Fill-19">
                <use fill="none" sketch:type="MSShapeGroup" mask="url(#mask-20)" xlink:href="#path-21"></use>
                <use fill="#FFFFFF" fill-rule="evenodd" xlink:href="#path-21"></use>
            </g>
            <mask id="mask-23" sketch:name="Clip 23" fill="white">
                <use xlink:href="#path-22"></use>
            </mask>
            <g id="Clip-23">
                <use fill="none" sketch:type="MSShapeGroup" xlink:href="#path-22"></use>
                <use fill="#FFFFFF" fill-rule="evenodd" xlink:href="#path-22"></use>
            </g>
            <g id="Fill-22">
                <use fill="none" sketch:type="MSShapeGroup" mask="url(#mask-23)" xlink:href="#path-24"></use>
                <use fill="#FFFFFF" fill-rule="evenodd" xlink:href="#path-24"></use>
            </g>
            <mask id="mask-26" sketch:name="Clip 26" fill="white">
                <use xlink:href="#path-25"></use>
            </mask>
            <g id="Clip-26">
                <use fill="none" sketch:type="MSShapeGroup" xlink:href="#path-25"></use>
                <use fill="#FFFFFF" fill-rule="evenodd" xlink:href="#path-25"></use>
            </g>
            <g id="Fill-25">
                <use fill="none" sketch:type="MSShapeGroup" mask="url(#mask-26)" xlink:href="#path-27"></use>
                <use fill="#FFFFFF" fill-rule="evenodd" xlink:href="#path-27"></use>
            </g>
            <mask id="mask-29" sketch:name="Clip 29" fill="white">
                <use xlink:href="#path-28"></use>
            </mask>
            <g id="Clip-29">
                <use fill="none" sketch:type="MSShapeGroup" xlink:href="#path-28"></use>
                <use fill="#FFFFFF" fill-rule="evenodd" xlink:href="#path-28"></use>
            </g>
            <g id="Fill-28">
                <use fill="none" sketch:type="MSShapeGroup" mask="url(#mask-29)" xlink:href="#path-30"></use>
                <use fill="#FFFFFF" fill-rule="evenodd" xlink:href="#path-30"></use>
            </g>
            <mask id="mask-32" sketch:name="Clip 32" fill="white">
                <use xlink:href="#path-31"></use>
            </mask>
            <g id="Clip-32">
                <use fill="none" sketch:type="MSShapeGroup" xlink:href="#path-31"></use>
                <use fill="#FFFFFF" fill-rule="evenodd" xlink:href="#path-31"></use>
            </g>
            <g id="Fill-31">
                <use fill="none" sketch:type="MSShapeGroup" mask="url(#mask-32)" xlink:href="#path-33"></use>
                <use fill="#FFFFFF" fill-rule="evenodd" xlink:href="#path-33"></use>
            </g>
            <mask id="mask-35" sketch:name="Clip 35" fill="white">
                <use xlink:href="#path-34"></use>
            </mask>
            <g id="Clip-35">
                <use fill="none" sketch:type="MSShapeGroup" xlink:href="#path-34"></use>
                <use fill="#FFFFFF" fill-rule="evenodd" xlink:href="#path-34"></use>
            </g>
            <g id="Fill-34">
                <use fill="none" sketch:type="MSShapeGroup" mask="url(#mask-35)" xlink:href="#path-36"></use>
                <use fill="#FFFFFF" fill-rule="evenodd" xlink:href="#path-36"></use>
            </g>
            <mask id="mask-38" sketch:name="Clip 38" fill="white">
                <use xlink:href="#path-37"></use>
            </mask>
            <g id="Clip-38">
                <use fill="none" sketch:type="MSShapeGroup" xlink:href="#path-37"></use>
                <use fill="#FFFFFF" fill-rule="evenodd" xlink:href="#path-37"></use>
            </g>
            <g id="Fill-37">
                <use fill="none" sketch:type="MSShapeGroup" mask="url(#mask-38)" xlink:href="#path-39"></use>
                <use fill="#FFFFFF" fill-rule="evenodd" xlink:href="#path-39"></use>
            </g>
            <mask id="mask-41" sketch:name="Clip 41" fill="white">
                <use xlink:href="#path-40"></use>
            </mask>
            <g id="Clip-41">
                <use fill="none" sketch:type="MSShapeGroup" xlink:href="#path-40"></use>
                <use fill="#FFFFFF" fill-rule="evenodd" xlink:href="#path-40"></use>
            </g>
            <g id="Fill-40">
                <use fill="none" sketch:type="MSShapeGroup" mask="url(#mask-41)" xlink:href="#path-42"></use>
                <use fill="#FFFFFF" fill-rule="evenodd" xlink:href="#path-42"></use>
            </g>
            <mask id="mask-44" sketch:name="Clip 44" fill="white">
                <use xlink:href="#path-43"></use>
            </mask>
            <g id="Clip-44">
                <use fill="none" sketch:type="MSShapeGroup" xlink:href="#path-43"></use>
                <use fill="#FFFFFF" fill-rule="evenodd" xlink:href="#path-43"></use>
            </g>
            <g id="Fill-43">
                <use fill="none" sketch:type="MSShapeGroup" mask="url(#mask-44)" xlink:href="#path-45"></use>
                <use fill="#FFFFFF" fill-rule="evenodd" xlink:href="#path-45"></use>
            </g>
            <mask id="mask-47" sketch:name="Clip 47" fill="white">
                <use xlink:href="#path-46"></use>
            </mask>
            <g id="Clip-47">
                <use fill="none" sketch:type="MSShapeGroup" xlink:href="#path-46"></use>
                <use fill="#FFFFFF" fill-rule="evenodd" xlink:href="#path-46"></use>
            </g>
            <g id="Fill-46">
                <use fill="none" sketch:type="MSShapeGroup" mask="url(#mask-47)" xlink:href="#path-48"></use>
                <use fill="#FFFFFF" fill-rule="evenodd" xlink:href="#path-48"></use>
            </g>
            <mask id="mask-50" sketch:name="Clip 50" fill="white">
                <use xlink:href="#path-49"></use>
            </mask>
            <g id="Clip-50">
                <use fill="none" sketch:type="MSShapeGroup" xlink:href="#path-49"></use>
                <use fill="#FFFFFF" fill-rule="evenodd" xlink:href="#path-49"></use>
            </g>
            <g id="Fill-49">
                <use fill="none" sketch:type="MSShapeGroup" mask="url(#mask-50)" xlink:href="#path-51"></use>
                <use fill="#FFFFFF" fill-rule="evenodd" xlink:href="#path-51"></use>
            </g>
            <mask id="mask-53" sketch:name="Clip 53" fill="white">
                <use xlink:href="#path-52"></use>
            </mask>
            <g id="Clip-53">
                <use fill="none" sketch:type="MSShapeGroup" xlink:href="#path-52"></use>
                <use fill="#FFFFFF" fill-rule="evenodd" xlink:href="#path-52"></use>
            </g>
            <g id="Fill-52">
                <use fill="none" sketch:type="MSShapeGroup" mask="url(#mask-53)" xlink:href="#path-54"></use>
                <use fill="#FFFFFF" fill-rule="evenodd" xlink:href="#path-54"></use>
            </g>
            <mask id="mask-56" sketch:name="Clip 56" fill="white">
                <use xlink:href="#path-55"></use>
            </mask>
            <g id="Clip-56">
                <use fill="none" sketch:type="MSShapeGroup" xlink:href="#path-55"></use>
                <use fill="#FFFFFF" fill-rule="evenodd" xlink:href="#path-55"></use>
            </g>
            <g id="Fill-55">
                <use fill="none" sketch:type="MSShapeGroup" mask="url(#mask-56)" xlink:href="#path-57"></use>
                <use fill="#FFFFFF" fill-rule="evenodd" xlink:href="#path-57"></use>
            </g>
            <mask id="mask-59" sketch:name="Clip 59" fill="white">
                <use xlink:href="#path-58"></use>
            </mask>
            <g id="Clip-59">
                <use fill="none" sketch:type="MSShapeGroup" xlink:href="#path-58"></use>
                <use fill="#FFFFFF" fill-rule="evenodd" xlink:href="#path-58"></use>
            </g>
            <g id="Fill-58">
                <use fill="none" sketch:type="MSShapeGroup" mask="url(#mask-59)" xlink:href="#path-60"></use>
                <use fill="#FFFFFF" fill-rule="evenodd" xlink:href="#path-60"></use>
            </g>
        </g>
    </g>
</svg>