<?xml version="1.0" encoding="UTF-8" standalone="no"?>
<svg width="274px" height="223px" viewBox="0 0 274 223" version="1.1" xmlns="http://www.w3.org/2000/svg" xmlns:xlink="http://www.w3.org/1999/xlink" xmlns:sketch="http://www.bohemiancoding.com/sketch/ns">
    <!-- Generator: Sketch 3.4.3 (16618) - http://www.bohemiancoding.com/sketch -->
    <title>Twitter Logo</title>
    <desc>Created with Sketch.</desc>
    <defs></defs>
    <g id="Page-1" stroke="none" stroke-width="1" fill="none" fill-rule="evenodd" sketch:type="MSPage">
        <g id="Twitter-Logo" sketch:type="MSArtboardGroup" fill="#FFFFFF">
            <path d="M273.39,26.301 C263.331,30.762 252.522,33.778 241.175,35.133 C252.756,28.192 261.65,17.199 265.837,4.102 C255,10.53 242.997,15.197 230.22,17.713 C219.989,6.812 205.412,0 189.28,0 C158.302,0 133.189,25.114 133.189,56.088 C133.189,60.485 133.685,64.765 134.641,68.87 C88.026,66.531 46.697,44.201 19.033,10.267 C14.205,18.551 11.439,28.186 11.439,38.465 C11.439,57.924 21.341,75.092 36.391,85.151 C27.197,84.86 18.548,82.336 10.986,78.135 C10.982,78.369 10.981,78.604 10.981,78.84 C10.981,106.016 30.315,128.686 55.974,133.839 C51.267,135.12 46.312,135.805 41.197,135.805 C37.582,135.805 34.069,135.454 30.644,134.799 C37.782,157.083 58.496,173.299 83.04,173.753 C63.843,188.796 39.659,197.762 13.38,197.762 C8.853,197.762 4.388,197.497 0,196.979 C24.823,212.893 54.305,222.178 85.98,222.178 C189.149,222.178 245.565,136.712 245.565,62.592 C245.565,60.16 245.51,57.741 245.403,55.336 C256.361,47.428 265.87,37.549 273.39,26.301" sketch:type="MSShapeGroup"></path>
        </g>
    </g>
</svg>